<?xml version="1.0" encoding="UTF-8"?>
<svg xmlns="http://www.w3.org/2000/svg" xmlns:xlink="http://www.w3.org/1999/xlink" width="180pt" height="180pt" viewBox="0 0 180 180" version="1.1">
<g id="surface1">
<path style=" stroke:none;fill-rule:nonzero;fill:rgb(100%,0.392157%,0.392157%);fill-opacity:1;" d="M 68.132812 63.355469 C 51.695312 55.691406 43.683594 40.070312 48.597656 25.265625 C 53.507812 10.464844 70.121094 0.171875 89.097656 0.171875 C 108.074219 0.171875 124.6875 10.464844 129.597656 25.265625 C 134.511719 40.070312 126.496094 55.691406 110.0625 63.355469 L 97.4375 45.699219 C 103.976562 42.648438 107.164062 36.433594 105.210938 30.542969 C 103.253906 24.65625 96.648438 20.558594 89.097656 20.558594 C 81.546875 20.558594 74.9375 24.65625 72.984375 30.542969 C 71.03125 36.433594 74.21875 42.648438 80.757812 45.699219 Z M 68.132812 63.355469 "/>
<path style=" stroke:none;fill-rule:nonzero;fill:rgb(0.392157%,0.392157%,100%);fill-opacity:1;" d="M 157.921875 71.554688 C 174.355469 79.21875 182.371094 94.839844 177.457031 109.644531 C 172.546875 124.445312 155.933594 134.742188 136.957031 134.742188 C 117.980469 134.742188 101.367188 124.445312 96.457031 109.644531 C 91.542969 94.839844 99.554688 79.21875 115.992188 71.554688 L 128.617188 89.210938 C 122.078125 92.261719 118.890625 98.476562 120.84375 104.367188 C 122.796875 110.253906 129.40625 114.351562 136.957031 114.351562 C 144.507812 114.351562 151.113281 110.253906 153.070312 104.367188 C 155.023438 98.476562 151.835938 92.261719 145.296875 89.210938 Z M 157.921875 71.554688 "/>
<path style=" stroke:none;fill-rule:nonzero;fill:rgb(0.392157%,100%,0.392157%);fill-opacity:1;" d="M 84.070312 100.878906 C 84.070312 116.203125 71.324219 129.621094 52.992188 133.585938 C 34.660156 137.554688 15.316406 131.082031 5.828125 117.808594 C -3.660156 104.535156 -0.929688 87.773438 12.492188 76.933594 C 25.910156 66.097656 46.671875 63.890625 63.105469 71.554688 L 50.480469 89.210938 C 43.941406 86.164062 35.683594 87.042969 30.34375 91.351562 C 25.007812 95.664062 23.917969 102.335938 27.695312 107.613281 C 31.46875 112.894531 39.164062 115.46875 46.457031 113.890625 C 53.75 112.3125 58.820312 106.976562 58.820312 100.878906 Z M 84.070312 100.878906 "/>
<path style=" stroke:none;fill-rule:nonzero;fill:rgb(1.960784%,1.960784%,1.960784%);fill-opacity:1;" d="M 12.183594 142.859375 C 15.734375 142.601562 19.320312 142.605469 22.851562 143.011719 C 25.027344 143.324219 27.335938 143.777344 28.972656 145.058594 C 30.683594 146.601562 31.105469 148.746094 31.480469 150.722656 C 32.097656 154.824219 32.027344 158.984375 31.480469 163.085938 C 31.117188 165.089844 30.757812 167.253906 29.132812 168.882812 C 27.359375 170.335938 24.742188 170.746094 22.339844 171.054688 C 18.792969 171.410156 15.199219 171.492188 11.636719 171.207031 C 9.226562 171.007812 6.710938 170.664062 4.65625 169.554688 C 3.328125 168.875 2.617188 167.671875 2.132812 166.507812 C 1.160156 164.082031 1.035156 161.503906 0.902344 158.976562 C 0.886719 155.636719 0.964844 152.265625 1.773438 148.976562 C 2.210938 147.445312 2.738281 145.757812 4.34375 144.734375 C 6.605469 143.410156 9.480469 143.085938 12.183594 142.859375 Z M 12.773438 147.4375 C 11.277344 147.617188 9.417969 147.71875 8.519531 148.839844 C 7.734375 150.515625 7.761719 152.34375 7.601562 154.105469 C 7.523438 157.25 7.328125 160.421875 7.929688 163.539062 C 8.152344 164.59375 8.613281 165.847656 10.058594 166.15625 C 13.199219 166.929688 16.558594 166.800781 19.792969 166.652344 C 21.40625 166.453125 23.546875 166.339844 24.332031 164.976562 C 25.234375 162.902344 25.167969 160.660156 25.28125 158.492188 C 25.246094 155.445312 25.457031 152.335938 24.554688 149.355469 C 24.335938 148.292969 22.976562 147.84375 21.824219 147.65625 C 18.847656 147.183594 15.777344 147.242188 12.773438 147.4375 Z M 44.480469 152.359375 C 46.632812 151.253906 49.308594 151.074219 51.796875 151.253906 C 54.117188 151.414062 56.695312 152.050781 57.9375 153.777344 C 59.421875 155.945312 59.503906 158.503906 59.609375 160.921875 C 59.542969 163.402344 59.484375 165.996094 58.214844 168.308594 C 57.488281 169.710938 55.820312 170.628906 54.035156 170.992188 C 51.304688 171.53125 48.300781 171.589844 45.664062 170.710938 C 44.242188 170.261719 43.257812 169.285156 42.441406 168.28125 L 42.441406 179.636719 L 36.421875 179.636719 C 36.425781 170.238281 36.414062 160.839844 36.425781 151.441406 C 38.371094 151.433594 40.320312 151.433594 42.265625 151.441406 C 42.199219 152.410156 42.132812 153.375 42.097656 154.34375 C 42.820312 153.632812 43.492188 152.851562 44.480469 152.359375 Z M 46.4375 154.894531 C 45.007812 154.988281 43.445312 155.558594 43.039062 156.769531 C 42.273438 158.90625 42.410156 161.164062 42.519531 163.363281 C 42.707031 164.792969 42.925781 166.640625 44.8125 167.28125 C 46.84375 167.914062 49.183594 167.882812 51.238281 167.339844 C 53.011719 166.835938 53.273438 165.148438 53.457031 163.84375 C 53.644531 161.6875 53.710938 159.484375 53.1875 157.351562 C 53.007812 156.523438 52.484375 155.671875 51.484375 155.324219 C 49.90625 154.761719 48.125 154.792969 46.4375 154.894531 Z M 66.8125 152.394531 C 69.769531 151.167969 73.234375 151.125 76.480469 151.246094 C 79.183594 151.429688 82.464844 151.792969 83.957031 153.882812 C 85.636719 156.402344 85.363281 159.367188 85.597656 162.136719 L 69.128906 162.136719 C 69.320312 163.5625 69.09375 165.101562 69.984375 166.410156 C 70.746094 167.441406 72.359375 167.652344 73.726562 167.714844 C 75.417969 167.722656 77.234375 167.835938 78.789062 167.203125 C 79.679688 166.636719 79.6875 165.636719 79.800781 164.808594 C 81.726562 164.808594 83.65625 164.808594 85.582031 164.808594 C 85.507812 166.433594 85.25 168.25 83.636719 169.394531 C 81.214844 171.148438 77.746094 171.332031 74.644531 171.378906 C 71.910156 171.3125 69.019531 171.203125 66.570312 170.113281 C 64.585938 169.167969 63.953125 167.226562 63.605469 165.515625 C 63.164062 162.972656 63.050781 160.378906 63.425781 157.828125 C 63.734375 155.8125 64.40625 153.441406 66.8125 152.394531 Z M 70.328125 155.488281 C 69.070312 156.414062 69.195312 157.953125 69.140625 159.210938 C 72.679688 159.226562 76.21875 159.21875 79.761719 159.214844 C 79.757812 158.082031 79.890625 156.847656 79.132812 155.835938 C 78.390625 155.019531 76.996094 154.96875 75.851562 154.867188 C 74.007812 154.84375 71.972656 154.683594 70.328125 155.488281 Z M 98.417969 152.382812 C 100.5 151.214844 103.191406 151.054688 105.640625 151.28125 C 107.726562 151.460938 109.933594 152.101562 111.167969 153.554688 C 112.257812 154.761719 112.5625 156.296875 112.578125 157.757812 C 112.570312 162.214844 112.582031 166.671875 112.574219 171.128906 C 110.667969 171.132812 108.761719 171.132812 106.859375 171.128906 C 106.851562 166.910156 106.863281 162.695312 106.851562 158.480469 C 106.792969 157.5625 106.839844 156.496094 105.980469 155.785156 C 105.066406 154.988281 103.628906 154.832031 102.351562 154.839844 C 100.804688 154.832031 99.128906 155.042969 97.9375 155.90625 C 96.773438 156.710938 96.332031 158.003906 96.324219 159.199219 C 96.316406 163.175781 96.328125 167.152344 96.316406 171.128906 C 94.414062 171.132812 92.507812 171.132812 90.605469 171.128906 C 90.601562 164.566406 90.601562 158.003906 90.605469 151.441406 C 92.476562 151.433594 94.351562 151.4375 96.226562 151.441406 C 96.214844 152.59375 96.074219 153.738281 96.03125 154.890625 C 96.644531 153.957031 97.289062 152.976562 98.417969 152.382812 Z M 122.925781 143.757812 C 126.082031 142.902344 129.445312 142.78125 132.742188 142.6875 C 135.9375 142.699219 139.28125 142.722656 142.265625 143.761719 C 143.785156 144.273438 144.832031 145.390625 145.34375 146.625 C 146.179688 148.472656 146.203125 150.46875 146.222656 152.414062 C 144.019531 152.414062 141.820312 152.417969 139.625 152.410156 C 139.585938 151.042969 139.714844 149.511719 138.667969 148.351562 C 137.609375 147.476562 135.953125 147.476562 134.546875 147.34375 C 131.6875 147.300781 128.710938 147.152344 125.972656 147.949219 C 124.984375 148.203125 124.472656 149 124.273438 149.765625 C 123.710938 151.828125 123.710938 153.957031 123.710938 156.058594 C 123.746094 158.867188 123.691406 161.71875 124.433594 164.484375 C 124.628906 165.496094 125.785156 166.117188 126.9375 166.339844 C 129.613281 166.878906 132.402344 166.800781 135.132812 166.667969 C 136.554688 166.519531 138.289062 166.441406 139.183594 165.386719 C 140.136719 164.128906 139.980469 162.582031 139.925781 161.164062 C 142.148438 161.160156 144.367188 161.160156 146.589844 161.164062 C 146.5625 163.398438 146.511719 165.707031 145.507812 167.820312 C 144.992188 168.925781 143.921875 169.867188 142.539062 170.289062 C 139.820312 171.167969 136.839844 171.222656 133.957031 171.363281 C 130.613281 171.410156 127.226562 171.347656 123.957031 170.714844 C 122.039062 170.3125 119.945312 169.601562 119.054688 168.0625 C 117.921875 166.03125 117.714844 163.765625 117.421875 161.578125 C 117.175781 158.683594 117.019531 155.785156 117.109375 152.886719 C 117.28125 150.542969 117.542969 148.070312 119.113281 146.027344 C 119.945312 144.890625 121.410156 144.175781 122.925781 143.757812 Z M 147.671875 142.9375 C 149.964844 142.941406 152.257812 142.886719 154.550781 142.964844 C 156.78125 148.679688 159.230469 154.335938 161.480469 160.042969 C 162.359375 162.238281 162.976562 164.492188 163.882812 166.679688 C 164.898438 164.320312 165.550781 161.871094 166.542969 159.507812 C 168.742188 153.988281 171.003906 148.484375 173.199219 142.964844 C 175.464844 142.886719 177.734375 142.953125 180 142.929688 L 180 143.535156 C 176.273438 152.707031 172.632812 161.902344 168.984375 171.09375 C 165.574219 171.152344 162.164062 171.160156 158.753906 171.089844 C 155.125 161.691406 151.320312 152.335938 147.671875 142.9375 Z M 147.671875 142.9375 "/>
</g>
</svg>
