<?xml version="1.0" standalone="no"?>
<!DOCTYPE svg PUBLIC "-//W3C//DTD SVG 20010904//EN"
 "http://www.w3.org/TR/2001/REC-SVG-20010904/DTD/svg10.dtd">
<svg version="1.0" xmlns="http://www.w3.org/2000/svg"
 width="180.000000pt" height="180.000000pt" viewBox="0 0 180.000000 180.000000"
 preserveAspectRatio="xMidYMid meet">
<metadata>
Created by potrace 1.16, written by Peter Selinger 2001-2019
</metadata>
<g transform="translate(0.000000,180.000000) scale(0.075630,-0.088235)"
fill="#000000" stroke="none">
<path d="M608 1669 c-197 -19 -386 -81 -410 -135 -9 -20 -8 -28 8 -45 70 -78
304 -129 586 -129 242 0 411 30 531 93 95 50 89 91 -22 141 -155 69 -436 100
-693 75z"/>
<path d="M1345 1363 c-51 -29 -164 -59 -296 -79 -128 -19 -460 -14 -584 9 -84
16 -189 48 -237 73 -15 8 -29 14 -33 14 -10 0 -5 -171 5 -191 28 -50 214 -109
415 -129 281 -29 644 23 744 108 l32 27 -3 95 -3 96 -40 -23z"/>
<path d="M190 987 c0 -84 2 -96 23 -114 85 -79 300 -123 594 -123 l163 0 29
58 c54 106 147 165 261 166 36 1 80 -2 98 -6 l32 -7 0 59 0 60 -37 -19 c-164
-83 -511 -121 -782 -87 -143 19 -285 55 -339 87 -18 10 -35 19 -38 19 -2 0 -4
-42 -4 -93z"/>
<path d="M1134 866 c-40 -40 -45 -83 -15 -132 18 -29 36 -39 106 -60 42 -13
69 -69 54 -113 -12 -33 -52 -61 -90 -61 -12 0 -37 11 -55 25 -40 31 -56 32
-52 3 5 -33 63 -68 113 -68 160 0 181 222 25 260 -78 19 -102 69 -55 115 31
32 65 32 94 1 24 -25 51 -25 51 1 0 7 -12 25 -26 38 -20 19 -38 25 -71 25 -38
0 -51 -6 -79 -34z"/>
<path d="M1505 881 c-43 -19 -100 -78 -116 -118 -14 -37 -11 -136 5 -174 18
-44 71 -94 118 -113 53 -23 133 -20 185 5 l44 21 23 -21 c25 -24 56 -28 56 -7
0 7 -12 25 -26 39 l-26 26 23 31 c29 39 38 139 17 190 -22 52 -67 101 -113
121 -52 24 -138 24 -190 0z m173 -42 c63 -31 97 -86 97 -159 0 -37 -6 -66 -18
-84 l-18 -27 -26 25 c-50 50 -76 16 -27 -35 l26 -27 -46 -17 c-90 -34 -181 0
-228 85 -29 53 -21 138 18 186 59 74 139 93 222 53z"/>
<path d="M1870 680 l0 -221 143 3 c118 3 142 5 142 18 0 12 -22 15 -122 18
l-123 3 0 199 c0 193 -1 200 -20 200 -19 0 -20 -7 -20 -220z"/>
<path d="M190 680 c0 -104 7 -116 94 -156 133 -61 358 -91 600 -80 82 4 153 9
157 12 5 3 -2 20 -16 38 -28 37 -55 107 -55 142 l0 24 -171 0 c-242 0 -448 34
-561 91 -21 11 -40 19 -43 19 -3 0 -5 -40 -5 -90z"/>
</g>
</svg>
