<?xml version="1.0" encoding="UTF-8"?>
<svg xmlns="http://www.w3.org/2000/svg" xmlns:xlink="http://www.w3.org/1999/xlink" width="240px" height="240px" viewBox="0 0 240 240" version="1.1">
<g id="surface1">
<path style=" stroke:none;fill-rule:nonzero;fill:rgb(100%,100%,100%);fill-opacity:1;" d="M 54.847656 139.90625 C 53.882812 141.398438 52.066406 142.105469 50.347656 141.652344 C 48.214844 140.738281 45.761719 140.964844 43.828125 142.253906 C 41.535156 143.886719 39.050781 142.648438 39.488281 139.664062 C 39.671875 136.671875 41.304688 133.953125 43.859375 132.382812 C 50.109375 128.789062 45.765625 126.292969 49.191406 122.683594 C 52.621094 119.078125 51.871094 117.96875 51.75 113.0625 C 41.574219 112.273438 32.253906 107.066406 26.25 98.8125 C 19.457031 90.945312 15.585938 80.972656 15.300781 70.582031 C 13.9375 60.808594 15.636719 50.851562 20.167969 42.082031 C 24.1875 33.734375 30.988281 27.042969 39.40625 23.167969 C 47.484375 19.019531 56.496094 17.027344 65.574219 17.390625 C 71.867188 16.949219 78.175781 18.117188 83.894531 20.78125 C 87.390625 23.425781 91.3125 25.457031 95.488281 26.78125 C 97.582031 26.90625 99.652344 26.308594 101.355469 25.085938 C 101.707031 34.003906 93.683594 34.777344 86.503906 34.964844 C 79.328125 35.152344 74.910156 32.183594 68.300781 33.285156 C 59.144531 34.183594 50.839844 39.042969 45.578125 46.589844 C 41.417969 52.433594 39.625 59.636719 40.558594 66.75 C 40.835938 73.125 45.207031 78.585938 51.367188 80.25 C 55.117188 80.308594 55.941406 79.230469 59.21875 77.09375 C 62.496094 74.953125 79.207031 54.269531 84.914062 49.621094 C 89.789062 45.539062 95.972656 43.351562 102.328125 43.460938 C 106.625 43.050781 110.949219 43.792969 114.863281 45.609375 C 119.023438 47.941406 123 50.59375 126.75 53.542969 C 128.53125 52.191406 130.242188 50.75 131.878906 49.222656 C 136.722656 44.777344 143.335938 42.792969 149.828125 43.835938 C 154.84375 44.535156 159.566406 46.613281 163.46875 49.835938 C 169.15625 55.324219 174.21875 61.425781 178.566406 68.023438 C 181.351562 72.929688 185.601562 76.835938 190.726562 79.191406 C 196.507812 80.96875 200.863281 73.476562 201.503906 69.324219 C 201.972656 67.011719 202.253906 64.667969 202.34375 62.308594 C 202.367188 59.464844 202.027344 56.628906 201.328125 53.871094 C 200.554688 51.1875 199.40625 48.621094 197.917969 46.253906 C 195.515625 42.351562 192.160156 39.125 188.167969 36.878906 C 184.90625 35.230469 181.378906 34.167969 177.75 33.75 C 174.226562 34.070312 170.722656 34.570312 167.25 35.25 C 162.871094 35.550781 155.039062 36.53125 151.605469 33.148438 C 149.820312 31.496094 148.796875 29.183594 148.769531 26.753906 C 149.78125 27.558594 151.003906 28.050781 152.289062 28.175781 C 155.03125 28.410156 157.597656 26.167969 159.789062 24.871094 C 161.960938 23.394531 164.234375 22.074219 166.597656 20.925781 C 173.117188 18.769531 180.054688 18.171875 186.847656 19.183594 C 192.636719 19.964844 198.230469 21.808594 203.347656 24.621094 C 208.082031 27.535156 212.238281 31.296875 215.601562 35.722656 C 219.441406 40.363281 222.101562 45.859375 223.359375 51.75 C 225.484375 61.246094 225.527344 71.089844 223.484375 80.601562 C 220.804688 88.507812 216.414062 95.726562 210.628906 101.746094 C 205.800781 106.195312 199.746094 109.101562 193.253906 110.085938 C 193.40625 111.316406 193.621094 112.535156 193.898438 113.746094 C 194.378906 115.289062 195.308594 117.015625 197.203125 116.46875 C 197.949219 116.097656 198.851562 116.292969 199.371094 116.941406 C 200.371094 117.808594 199.851562 121.191406 197.039062 122.707031 C 195.410156 123.460938 193.621094 123.796875 191.828125 123.691406 C 189.046875 123.796875 186.261719 123.667969 183.503906 123.308594 C 181.027344 122.871094 179.542969 120.90625 176.796875 120.601562 C 172.773438 119.5625 169.042969 117.597656 165.90625 114.871094 C 165.035156 114.347656 164.128906 113.882812 163.191406 113.484375 C 163.636719 114.832031 164.226562 116.242188 164.519531 117.539062 C 164.8125 118.835938 164.691406 120.046875 164.84375 121.078125 C 164.992188 122.113281 165.285156 122.933594 165.457031 123.773438 C 166.132812 124.378906 166.351562 125.273438 167.496094 125.59375 C 168.871094 125.707031 170.253906 125.601562 171.59375 125.273438 C 172.761719 125.113281 173.542969 124.476562 174.464844 124.648438 C 175.414062 124.929688 176.289062 125.421875 177.015625 126.097656 C 177.765625 126.710938 178.449219 126.800781 179.070312 128.347656 C 179.804688 130.527344 180.238281 132.800781 180.351562 135.097656 C 180.480469 137.015625 180.226562 138.941406 179.601562 140.761719 C 179.027344 142.34375 178.042969 143.742188 176.746094 144.816406 C 174.5625 146.984375 172.15625 148.914062 169.574219 150.585938 C 169.992188 151.386719 170.496094 152.140625 171.074219 152.835938 C 171.824219 153.652344 173.503906 154.550781 174.234375 155.414062 C 174.90625 156.050781 175.304688 156.921875 175.34375 157.84375 C 175.441406 158.988281 175.152344 160.132812 174.523438 161.09375 C 172.65625 163.1875 170.210938 164.679688 167.496094 165.390625 C 168.128906 167.996094 168.1875 170.707031 167.671875 173.339844 C 167.390625 174.53125 166.777344 177.234375 165.308594 177.929688 C 163.300781 178.363281 161.253906 178.578125 159.203125 178.574219 C 157.410156 178.859375 156.40625 179.128906 155.003906 179.40625 C 154.042969 180.558594 153.1875 181.792969 152.453125 183.097656 C 152.066406 183.933594 152.089844 184.902344 152.511719 185.722656 C 152.878906 186.847656 154.117188 188.484375 154.46875 189.800781 C 154.839844 191.125 154.871094 192.519531 154.558594 193.859375 C 154.234375 195.179688 153.53125 196.378906 152.542969 197.308594 C 151.417969 198.488281 149.199219 199.410156 148.09375 200.355469 C 146.992188 201.300781 145.890625 201.421875 146.191406 202.996094 C 147.222656 205.84375 149.324219 208.175781 152.046875 209.496094 C 153.664062 209.972656 155.394531 209.84375 156.921875 209.136719 C 156.808594 210.984375 155.210938 212.226562 154.171875 213.457031 C 157.019531 212.683594 159.609375 211.160156 161.671875 209.046875 C 160.410156 211.863281 158.472656 214.324219 156.03125 216.210938 C 154.660156 217.394531 153.148438 218.402344 151.53125 219.210938 C 153.984375 219.675781 156.5 219.675781 158.953125 219.210938 C 157.226562 220.1875 155.316406 220.804688 153.34375 221.023438 C 151.210938 221.28125 149.042969 221.117188 146.96875 220.546875 C 144.46875 219.425781 142.078125 218.066406 139.835938 216.488281 C 140.007812 217.738281 140.578125 218.902344 141.464844 219.800781 C 142.949219 220.835938 144.5625 221.679688 146.257812 222.308594 C 143.835938 222.140625 141.425781 221.851562 139.035156 221.4375 C 137.589844 221.148438 136.191406 220.671875 134.871094 220.019531 C 133.695312 219.332031 132.566406 218.558594 131.503906 217.703125 C 131.851562 218.820312 132.398438 219.863281 133.117188 220.785156 C 134.234375 221.527344 135.445312 222.113281 136.71875 222.523438 C 135.46875 222.648438 134.210938 222.621094 132.96875 222.441406 C 131.5625 222.101562 130.242188 221.476562 129.089844 220.605469 C 127.683594 219.574219 126.378906 218.410156 125.191406 217.132812 C 123.984375 215.953125 122.972656 214.589844 122.191406 213.097656 C 121.753906 211.941406 122.453125 211.132812 122.578125 210.148438 C 121.707031 210.546875 120.902344 211.078125 120.195312 211.726562 C 119.441406 212.433594 119.105469 213.484375 119.308594 214.5 C 119.894531 216.074219 120.6875 217.558594 121.671875 218.917969 C 119.09375 216.808594 117.652344 216 117.039062 213.449219 C 116.832031 211.144531 117.570312 208.859375 119.078125 207.105469 C 119.640625 206.210938 120.480469 205.378906 121.003906 204.515625 C 119.761719 203.460938 118.59375 202.316406 117.511719 201.097656 C 116.511719 199.800781 116.09375 198.039062 115.074219 196.800781 C 113.972656 195.675781 112.773438 194.652344 111.488281 193.746094 C 112.714844 195.910156 113.769531 198.167969 114.636719 200.496094 C 114.875 201.839844 114.492188 203.21875 113.59375 204.246094 C 112.972656 205.191406 111.976562 205.402344 111.023438 205.980469 C 110.070312 206.558594 108.601562 206.109375 108.023438 206.960938 C 107.417969 207.855469 107.351562 209.007812 107.851562 209.960938 L 110.101562 213.457031 C 109.007812 212.8125 108.042969 211.980469 107.242188 210.996094 C 106.613281 210.140625 105.636719 209.363281 105.503906 208.214844 C 105.242188 207.128906 105.441406 205.984375 106.050781 205.050781 C 106.800781 204.023438 108.832031 203.683594 109.746094 202.898438 C 110.664062 202.109375 111.171875 201.601562 111.121094 200.578125 C 111.066406 199.558594 110.070312 198.839844 109.222656 198.195312 C 106.339844 196.382812 103.609375 194.339844 101.0625 192.082031 C 100.101562 191.164062 99.378906 190.023438 98.960938 188.761719 C 98.769531 187.792969 99 186.785156 99.601562 186 C 100.222656 184.867188 102.351562 183.359375 102.601562 182.136719 C 102.847656 180.914062 101.78125 180.636719 100.816406 180.21875 C 99.847656 179.796875 97.996094 180.433594 97.066406 179.683594 C 96.136719 178.933594 97.328125 177.351562 96.316406 176.484375 C 95.300781 175.613281 92.976562 176.101562 91.816406 175.164062 C 90.753906 174.277344 90.011719 173.066406 89.707031 171.71875 C 89.308594 170.484375 89.246094 169.167969 89.527344 167.902344 C 89.8125 166.921875 90.652344 166.746094 91.15625 166.238281 C 91.65625 165.726562 92.109375 165.308594 91.425781 164.550781 C 90.742188 163.792969 88.539062 164.59375 87.261719 163.621094 C 85.988281 162.644531 86.765625 160.320312 85.867188 159.328125 C 84.96875 158.339844 83.347656 158.738281 82.5 158.421875 C 81.652344 158.109375 81.308594 159.21875 80.789062 157.460938 C 80.273438 155.707031 80.25 150.488281 79.546875 148.546875 C 78.839844 146.601562 77.460938 148.410156 76.824219 146.476562 C 76.515625 143.835938 76.410156 141.179688 76.5 138.523438 L 75.1875 130.566406 C 70.621094 133.636719 56.210938 137.578125 54.9375 139.816406 "/>
<path style=" stroke:none;fill-rule:nonzero;fill:rgb(1.176471%,1.176471%,1.176471%);fill-opacity:1;" d="M 124.671875 61.933594 C 124.566406 64.304688 124.757812 66.679688 125.25 69 C 125.433594 70.988281 126.480469 72.800781 128.113281 73.949219 C 131.578125 76.523438 133.800781 76.09375 136.46875 77.585938 C 137.882812 78.269531 139.050781 79.375 139.816406 80.746094 C 140.1875 81.96875 139.65625 83.285156 138.539062 83.910156 C 139.457031 83.988281 140.347656 83.59375 140.910156 82.867188 C 141.472656 82.140625 141.628906 81.175781 141.324219 80.308594 C 140.933594 79.351562 139.074219 78.921875 138.523438 77.953125 C 138.015625 77.058594 137.90625 75.988281 138.226562 75.007812 C 138.703125 73.238281 142.207031 71.625 143.476562 70.230469 C 145.433594 68.574219 146.066406 65.828125 145.035156 63.480469 C 142.46875 59.492188 138.640625 56.480469 134.160156 54.921875 C 132.941406 54.445312 131.6875 54.070312 130.410156 53.796875 C 133.273438 54.929688 135.613281 57.085938 136.972656 59.851562 C 138.050781 62.65625 137.113281 63.710938 137.152344 66.148438 C 137.152344 67.28125 138.652344 67.84375 139.320312 68.566406 C 139.988281 69.285156 139.84375 69.652344 139.386719 70.507812 C 139.359375 69.796875 139 69.140625 138.414062 68.738281 C 137.4375 68.039062 136.378906 68.191406 135.855469 66.765625 C 135.058594 64.597656 136.605469 62.542969 134.863281 60.105469 C 133.738281 58.035156 131.730469 56.59375 129.414062 56.191406 C 128.335938 56.175781 127.261719 56.339844 126.238281 56.683594 L 124.597656 54.75 C 121.730469 51.667969 118.324219 49.140625 114.546875 47.289062 C 110.8125 45.449219 106.644531 44.671875 102.496094 45.039062 C 96.449219 44.71875 90.519531 46.796875 85.996094 50.820312 C 79.933594 56.070312 64.304688 76.074219 60.496094 78.570312 C 57.964844 80.925781 54.585938 82.152344 51.136719 81.96875 C 44.058594 80.375 38.949219 74.203125 38.707031 66.953125 C 37.75 59.382812 39.683594 51.730469 44.121094 45.523438 C 49.480469 37.226562 58.445312 31.941406 68.300781 31.273438 C 74.449219 31.222656 80.582031 31.800781 86.609375 33 C 92.390625 33 98.113281 32.011719 99.800781 27.414062 C 98.269531 28.261719 96.496094 28.574219 94.761719 28.296875 C 90.414062 26.8125 86.289062 24.742188 82.5 22.140625 C 77.058594 19.925781 71.1875 18.957031 65.324219 19.3125 C 56.984375 18.832031 48.667969 20.5625 41.210938 24.328125 C 32.953125 28.308594 26.171875 34.808594 21.847656 42.890625 C 17.296875 51.246094 15.574219 60.847656 16.941406 70.261719 C 17.4375 80.21875 21.183594 89.738281 27.613281 97.359375 C 33.484375 105.234375 42.523438 110.128906 52.328125 110.746094 L 54.796875 99.871094 L 50.390625 106.183594 L 50.503906 99.15625 L 46.523438 104.101562 L 44.773438 97.394531 L 41.550781 102.765625 L 39.945312 95.265625 L 35.273438 99.015625 L 36.773438 92.84375 L 30.585938 93.53125 L 33.425781 89.242188 L 27.789062 89.308594 L 31.074219 83.578125 L 26.070312 82.785156 L 30 77.625 L 23.871094 75.808594 L 28.941406 70.949219 L 24 66.871094 L 27.914062 63.824219 L 24.226562 58.949219 L 28.132812 54.398438 L 26.675781 48.398438 L 30 45.503906 L 30.988281 38.632812 L 34.738281 36.765625 L 37.941406 31.402344 L 43.828125 30.75 L 46.753906 25.925781 L 52.703125 26.226562 L 58.320312 23.175781 L 64.15625 24.53125 L 70.777344 22.539062 L 75.683594 23.683594 L 82.078125 24.621094 L 88.261719 29.566406 L 78.75 26.25 L 73.980469 28.539062 L 70.035156 26.128906 L 67.320312 27.976562 L 62.519531 28.453125 L 58.214844 28.175781 L 55.074219 32.011719 L 48.75 32.109375 L 46.5 37.265625 L 40.808594 39.261719 L 40.273438 45.195312 L 36.195312 48.390625 L 37.5 54 L 33.976562 59.796875 L 36.683594 64.867188 L 34.019531 69.511719 L 37.558594 71.820312 L 36.757812 79.28125 L 41.675781 80.527344 L 42.789062 86.0625 L 48.148438 85.5 L 51.480469 89.296875 L 55.597656 85.273438 C 61.921875 82.496094 67.542969 78.332031 72.046875 73.085938 C 77.339844 65.734375 83.890625 59.371094 91.394531 54.292969 C 96.945312 50.769531 103.632812 49.488281 110.09375 50.714844 C 116.804688 51.871094 119.046875 55.898438 123.988281 60.140625 C 124.316406 59.390625 124.832031 58.734375 125.488281 58.246094 C 125.148438 59.457031 124.878906 60.691406 124.679688 61.933594 Z M 159.660156 106.441406 C 159.226562 106.882812 158.71875 107.246094 158.160156 107.511719 C 157.316406 107.785156 156.453125 107.992188 155.578125 108.136719 C 156.878906 110.160156 158.242188 112.207031 159.488281 114.328125 C 160.734375 116.453125 161.8125 118.785156 163.003906 121.019531 C 163.015625 119.742188 162.960938 118.460938 162.839844 117.1875 C 162.496094 115.824219 162.074219 114.476562 161.578125 113.160156 C 161.046875 111.367188 160.386719 108.929688 159.628906 106.410156 Z M 159.210938 94.808594 C 159.671875 94.957031 160.097656 95.191406 160.46875 95.496094 C 161.289062 95.96875 161.957031 96.671875 162.382812 97.515625 C 162.769531 98.636719 162.894531 99.832031 162.742188 101.011719 C 162.324219 100.890625 161.753906 100.972656 161.308594 100.597656 C 160.867188 100.222656 160.621094 99.382812 160.058594 99.023438 C 159.550781 98.761719 158.984375 98.636719 158.414062 98.664062 C 158.746094 99.496094 158.859375 100.398438 158.738281 101.289062 C 158.574219 102.882812 157.269531 104.117188 155.671875 104.191406 C 154.808594 104.210938 153.945312 104.121094 153.105469 103.921875 C 153.40625 104.585938 153.914062 105.171875 154.207031 105.839844 C 155.324219 105.792969 156.429688 105.605469 157.5 105.292969 C 158.332031 104.738281 159.195312 104.238281 160.085938 103.792969 C 161.058594 103.535156 162.050781 103.367188 163.050781 103.289062 C 162.203125 104.039062 161.640625 104.789062 160.800781 105.503906 L 162.675781 110.960938 C 164.003906 111.796875 165.253906 112.230469 166.921875 113.257812 C 168.789062 114.667969 170.746094 115.957031 172.777344 117.121094 C 174.59375 118.042969 176.527344 118.707031 178.53125 119.09375 C 180.78125 119.519531 182.617188 121.34375 184.859375 121.664062 C 187.566406 121.957031 190.292969 122.019531 193.011719 121.851562 C 194.96875 121.664062 197.511719 120.652344 197.746094 118.5 C 195.410156 119.097656 193.023438 117.753906 192.324219 115.449219 C 191.761719 114.074219 192.039062 111.546875 191.175781 109.921875 C 190.3125 108.292969 189.121094 107.773438 187.679688 105.78125 C 185.789062 103.296875 184.085938 100.679688 182.585938 97.941406 C 181.273438 95.265625 180.960938 92.226562 179.851562 89.828125 C 178.683594 87.640625 177.3125 85.566406 175.753906 83.632812 C 173.476562 79.742188 170.046875 76.652344 165.945312 74.78125 C 163.589844 73.972656 161.175781 73.347656 158.722656 72.914062 C 157.738281 73.359375 156.398438 73.84375 156.15625 74.984375 C 155.960938 76.3125 156.34375 77.65625 157.207031 78.683594 C 158.992188 80.101562 160.445312 81.894531 161.46875 83.933594 C 162.027344 86.46875 162.101562 89.085938 161.691406 91.648438 C 161.132812 92.878906 160.289062 93.957031 159.234375 94.800781 Z M 148.328125 96.105469 C 150.335938 95.121094 152.503906 94.503906 154.734375 94.289062 C 155.675781 94.230469 157.140625 94.378906 158.09375 94.417969 C 159.027344 93.382812 159.789062 92.203125 160.34375 90.921875 C 160.578125 88.855469 160.46875 86.761719 160.019531 84.726562 C 158.730469 81.554688 157.46875 81.421875 155.691406 79.605469 C 154.578125 77.957031 153.976562 76.019531 153.960938 74.03125 C 153.816406 73.207031 153.414062 72.164062 153.210938 71.308594 C 150.730469 70.910156 148.214844 70.777344 145.710938 70.921875 C 147.121094 69.855469 148.144531 68.363281 148.636719 66.667969 C 149.03125 64.660156 148.679688 62.582031 147.644531 60.816406 C 146.417969 59.125 144.964844 57.613281 143.324219 56.316406 C 141.765625 54.953125 139.53125 53.828125 138.074219 52.703125 C 139.945312 51.878906 141.867188 51.191406 143.835938 50.640625 C 148.703125 49.902344 153.664062 51.109375 157.648438 54 C 160.574219 55.683594 163.234375 57.789062 165.546875 60.246094 C 168.425781 63.246094 171.988281 68.773438 174.773438 72.050781 C 177.019531 74.882812 179.523438 77.5 182.25 79.875 C 184.421875 81.367188 186.75 82.625 189.1875 83.625 L 192.796875 87.449219 L 195.710938 83.84375 L 200.398438 84.375 L 201.367188 79.125 L 205.671875 77.949219 L 204.976562 70.84375 L 208.074219 68.648438 L 205.746094 64.230469 L 208.109375 59.398438 L 205.027344 53.878906 L 206.21875 48.570312 L 202.648438 45.53125 L 202.183594 39.886719 L 197.203125 37.988281 L 195.210938 33.074219 L 189.585938 33 L 186.839844 29.355469 L 183.089844 29.617188 L 178.890625 29.160156 L 176.519531 27.40625 L 173.070312 29.65625 L 168.890625 27.480469 L 160.597656 30.628906 L 166.003906 25.925781 L 171.609375 25.035156 L 175.875 24 L 181.671875 25.90625 L 186.773438 24.613281 L 191.691406 27.523438 L 196.898438 27.238281 L 199.453125 31.828125 L 204.636719 32.421875 L 207.441406 37.523438 L 210.703125 39.300781 L 211.566406 45.832031 L 214.46875 48.585938 L 213.195312 54.300781 L 216.613281 58.628906 L 213.40625 63.269531 L 216.832031 66.171875 L 212.445312 70.058594 L 216.886719 74.675781 L 211.523438 76.402344 L 215.015625 81.359375 L 210.636719 82.109375 L 213.511719 87.5625 L 208.574219 87.496094 L 211.058594 91.582031 L 205.640625 90.929688 L 206.941406 96.800781 L 202.84375 93.203125 L 201.441406 100.320312 L 198.613281 95.203125 L 197.113281 101.578125 L 193.628906 96.878906 L 193.71875 103.558594 L 189.863281 97.558594 C 190.128906 101.171875 191.109375 104.695312 192.75 107.925781 C 199.109375 107.4375 205.078125 104.664062 209.550781 100.117188 C 215.105469 94.273438 219.277344 87.25 221.753906 79.574219 C 223.554688 70.621094 223.582031 61.402344 221.835938 52.441406 C 220.40625 46.660156 217.730469 41.261719 213.996094 36.621094 C 210.449219 32.378906 206.328125 28.648438 201.75 25.539062 C 194.359375 21.683594 186.070312 19.886719 177.75 20.332031 C 174.320312 20.347656 170.917969 20.980469 167.714844 22.207031 C 163.085938 23.886719 159.390625 27.5625 154.6875 29.371094 C 153.433594 29.988281 151.964844 29.988281 150.710938 29.371094 C 151.703125 31.605469 153.730469 33.210938 156.136719 33.660156 C 159.703125 34.097656 163.308594 34.066406 166.867188 33.5625 C 170.449219 32.792969 174.089844 32.316406 177.75 32.136719 C 181.671875 32.25 185.5 33.355469 188.878906 35.347656 C 193.199219 37.648438 196.824219 41.058594 199.378906 45.234375 C 200.890625 47.75 202.023438 50.476562 202.738281 53.324219 C 203.460938 56.207031 203.839844 59.160156 203.871094 62.128906 C 203.96875 64.746094 203.6875 67.359375 203.03125 69.890625 C 201.441406 75.75 197.933594 81.710938 190.726562 80.796875 C 186.316406 80.234375 179.664062 71.949219 177.433594 68.910156 C 173.121094 62.4375 168.171875 56.40625 162.667969 50.910156 C 159.105469 47.722656 154.632812 45.734375 149.878906 45.234375 C 143.242188 44.046875 136.46875 46.402344 132 51.449219 C 133.355469 51.792969 134.6875 52.21875 135.988281 52.726562 C 139.003906 54.054688 141.777344 55.875 144.195312 58.109375 C 146.542969 59.78125 147.941406 62.484375 147.945312 65.371094 C 148.003906 67.621094 146.152344 69.425781 144.457031 71.054688 C 143.414062 72.050781 142.042969 72.960938 141.203125 73.734375 C 140.085938 74.761719 138.703125 75.878906 140.101562 77.484375 C 140.792969 78.105469 141.546875 78.65625 142.351562 79.132812 C 143.574219 80.039062 143.015625 83.421875 141.398438 84.316406 C 139.425781 85.507812 136.90625 85.300781 135.15625 83.796875 C 137.308594 83.476562 138.675781 83.191406 138.613281 81.433594 C 138.613281 80.414062 137.289062 79.566406 136.011719 78.988281 C 133.070312 78.210938 130.238281 77.074219 127.574219 75.601562 C 124.492188 73.351562 124.425781 72.164062 123.59375 68.683594 C 121.949219 68.765625 120.320312 69.046875 118.746094 69.53125 C 116.761719 70.183594 114.5625 71.78125 112.746094 72.140625 C 110.171875 72.992188 107.394531 73.007812 104.8125 72.1875 C 99.425781 71.707031 94.003906 72.609375 89.0625 74.804688 C 86.605469 74.902344 84.15625 75.207031 81.75 75.710938 C 77.140625 77.527344 72.839844 80.046875 69 83.175781 C 61.566406 91.910156 56.457031 102.382812 54.148438 113.617188 C 53.765625 117.890625 54.988281 120.78125 52.289062 122.863281 C 49.589844 124.949219 49.671875 130.304688 48.757812 131.8125 C 47.84375 133.320312 46.785156 132.644531 44.820312 134.753906 C 42.855469 136.859375 41.820312 136.507812 41.902344 140.496094 C 43.773438 139.152344 45.953125 138.292969 48.238281 138.007812 C 50.160156 137.941406 50.183594 140.46875 55.109375 135.59375 C 57.75 132.984375 62.8125 132.90625 66.359375 131.753906 C 72.617188 129.773438 78.203125 126.101562 82.5 121.140625 C 88.773438 114.113281 92.511719 105.183594 93.113281 95.78125 C 93.507812 98.894531 93.414062 102.050781 92.828125 105.136719 C 90.972656 111.175781 91.375 117.683594 93.960938 123.449219 L 96.277344 127.875 C 94.386719 125.683594 92.746094 123.285156 91.386719 120.726562 L 89.511719 115.671875 C 86.820312 120.585938 83.074219 124.84375 78.539062 128.136719 C 78.167969 131.074219 78.394531 134.058594 79.207031 136.90625 C 80.167969 139.703125 78.636719 142.90625 79.363281 144.773438 C 80.09375 146.640625 81.773438 145.566406 82.320312 147.433594 C 82.867188 149.300781 82.035156 152.992188 82.882812 154.808594 C 83.730469 156.621094 85.824219 155.558594 86.835938 156.113281 C 87.632812 156.664062 88.28125 157.410156 88.71875 158.28125 C 89.265625 159.03125 88.507812 160.875 89.609375 161.46875 C 90.710938 162.058594 92.429688 161.558594 93.578125 162.128906 C 94.621094 162.8125 95.050781 164.125 94.621094 165.292969 C 94.351562 166.515625 93.121094 167.078125 92.578125 168.292969 C 92.039062 169.328125 92.105469 170.574219 92.753906 171.546875 C 93.632812 172.6875 94.859375 173.515625 96.246094 173.902344 C 97.671875 174.480469 99.675781 174.15625 101.144531 174.953125 C 102.582031 175.859375 103.800781 177.070312 104.714844 178.5 C 105.40625 179.414062 105.742188 180.546875 105.667969 181.6875 C 105.5625 183.023438 105.160156 184.316406 104.488281 185.476562 C 103.835938 186.652344 102.40625 188.078125 104.648438 190.328125 C 106.890625 192.578125 106.800781 191.601562 108.082031 193.058594 C 107.941406 190.539062 106.90625 188.488281 107.664062 186.59375 C 108.421875 184.695312 110.707031 184.34375 111.90625 183.511719 C 112.957031 182.613281 113.910156 181.605469 114.75 180.511719 C 114.816406 181.738281 114.816406 182.964844 114.75 184.191406 C 114.441406 186.1875 113.859375 187.941406 116.828125 188.273438 C 118.238281 188.15625 119.609375 187.730469 120.839844 187.027344 C 120.089844 188.347656 118.824219 189.414062 118.589844 190.988281 C 118.339844 192.699219 118.746094 194.441406 119.722656 195.871094 C 120.945312 197.339844 122.425781 198.578125 124.085938 199.523438 C 125.09375 200.132812 126.164062 200.636719 127.273438 201.023438 C 127.328125 202.574219 127.019531 204.226562 127.199219 205.679688 C 127.355469 207.109375 127.871094 208.472656 128.699219 209.648438 C 129.691406 210.773438 130.871094 211.722656 132.1875 212.445312 C 131.484375 210.808594 130.066406 209.265625 130.078125 207.546875 C 130.066406 205.796875 130.882812 204.140625 132.285156 203.09375 C 133.957031 201.59375 137.878906 200.242188 139.726562 198.765625 C 141.09375 197.800781 142.167969 196.476562 142.828125 194.941406 C 143.285156 193.296875 143.488281 191.597656 143.429688 189.890625 C 143.929688 191.265625 144.230469 192.703125 144.324219 194.160156 C 144.1875 196.238281 143.625 198.265625 142.664062 200.113281 C 144.671875 199.179688 146.269531 197.550781 147.164062 195.523438 C 147.652344 195.816406 147.40625 196.613281 147.585938 198.140625 C 148.402344 197.332031 149.324219 196.710938 150.140625 195.945312 C 151.039062 195.289062 151.769531 194.429688 152.273438 193.441406 C 152.605469 192.3125 152.585938 191.113281 152.210938 189.996094 C 151.542969 188.574219 150.726562 187.222656 149.78125 185.960938 C 149.03125 184.605469 149.910156 183.277344 149.859375 181.640625 C 148.414062 181.128906 146.890625 180.875 145.359375 180.890625 C 143.640625 181.140625 141.675781 183.066406 139.921875 183.089844 C 138.164062 183.113281 137.183594 181.46875 135.742188 181.011719 C 134.316406 180.6875 132.863281 180.488281 131.398438 180.414062 C 135.761719 178.472656 140.433594 177.328125 145.199219 177.03125 C 149.453125 176.324219 153.753906 175.9375 158.0625 175.867188 C 159.976562 176.109375 161.90625 176.1875 163.828125 176.09375 C 165.171875 175.710938 164.886719 174.789062 165.285156 173.789062 C 166.132812 171.15625 166.117188 168.320312 165.238281 165.699219 C 161.339844 165.09375 157.394531 164.863281 153.449219 165 C 149.617188 165.292969 145.074219 167.113281 141.121094 167.25 C 137.148438 167.402344 133.203125 166.558594 129.644531 164.789062 C 126.621094 162.519531 124.101562 159.648438 122.25 156.351562 C 120.636719 153.886719 118.605469 149.039062 117.367188 146.828125 C 116.761719 145.429688 115.902344 144.15625 114.824219 143.078125 C 113.703125 142.367188 112.464844 141.859375 111.164062 141.578125 C 112.574219 141.71875 114.105469 141.277344 115.386719 142.011719 C 117.308594 143.113281 119.460938 147.683594 120.636719 149.671875 C 121.90625 145.425781 121.605469 143.761719 125.273438 141.367188 C 122.984375 144.101562 121.664062 147.515625 121.523438 151.078125 C 123.976562 155.109375 127.386719 161.527344 131.859375 163.304688 C 133.847656 163.941406 135.902344 164.363281 137.984375 164.566406 C 143.414062 164.765625 148.835938 163.964844 153.976562 162.203125 C 158.132812 161.46875 162.375 161.367188 166.558594 161.902344 C 168.171875 161.992188 171.960938 161.023438 172.746094 159.40625 C 173.195312 158.464844 173.101562 157.359375 172.5 156.511719 C 171.890625 155.566406 170.25 155.113281 169.394531 154.261719 C 168.632812 153.402344 167.945312 152.476562 167.339844 151.5 C 164.277344 152.101562 161.171875 152.449219 158.054688 152.535156 C 159.984375 151.738281 161.804688 151.28125 163.835938 150.503906 C 165.902344 149.648438 167.878906 148.597656 169.738281 147.359375 C 171.136719 146.550781 172.421875 145.5625 173.566406 144.425781 C 174.894531 143.21875 176.078125 141.863281 177.097656 140.386719 C 177.867188 138.796875 178.226562 137.039062 178.140625 135.277344 C 178.296875 133.234375 178.042969 131.179688 177.390625 129.238281 C 176.703125 128.023438 175.515625 127.171875 174.140625 126.90625 C 173.015625 126.546875 172.253906 127.453125 171.082031 127.582031 C 169.914062 127.710938 168.832031 128.445312 167.128906 127.640625 C 164.957031 126.511719 163.101562 124.855469 161.730469 122.828125 C 160.019531 120.425781 158.804688 116.496094 157.058594 113.476562 C 153.902344 108.316406 150.457031 103.34375 146.738281 98.578125 C 146.332031 97.121094 146.035156 95.636719 145.851562 94.132812 C 145.476562 91.296875 145.667969 88.417969 146.421875 85.65625 C 146.84375 83.4375 148.257812 81.53125 150.261719 80.484375 C 151.140625 80.105469 152.121094 80.035156 153.046875 80.289062 C 153.972656 80.585938 154.515625 81.542969 154.296875 82.492188 C 153.960938 83.617188 153.171875 83.65625 152.640625 84.226562 C 151.851562 85.019531 151.300781 86.015625 151.042969 87.105469 C 152.074219 87.027344 153.109375 87.070312 154.132812 87.226562 C 155.347656 87.542969 156.3125 88.46875 156.675781 89.671875 C 155.828125 88.652344 154.578125 88.050781 153.253906 88.019531 C 152.457031 88.078125 151.664062 88.199219 150.886719 88.378906 C 150.675781 89.363281 150.378906 90.324219 150 91.253906 C 149.578125 92.003906 148.777344 91.816406 148.5 92.683594 C 148.210938 93.800781 148.15625 94.960938 148.335938 96.097656 Z M 152.421875 97.605469 C 150.863281 97.703125 150.488281 97.5 149.242188 98.355469 L 151.273438 101.519531 C 151.058594 100.101562 151.480469 98.664062 152.421875 97.582031 Z M 99.382812 83.65625 C 99.414062 83.160156 99.503906 82.671875 99.652344 82.199219 C 97.402344 81.59375 96.480469 83.0625 95.152344 85.792969 C 94.65625 86.8125 95.152344 87.421875 94.613281 88.085938 C 94.074219 88.753906 93.226562 88.664062 92.363281 89.308594 C 91.5 89.953125 90.636719 91.191406 89.828125 91.859375 C 88.015625 93.128906 86.058594 94.183594 84 94.996094 C 85.757812 93.972656 87.339844 92.671875 88.6875 91.148438 C 89.121094 90.398438 89.0625 88.996094 89.738281 88.320312 C 90.414062 87.644531 90.660156 87.179688 91.539062 87.015625 C 92.414062 86.851562 92.0625 85.824219 92.347656 85.019531 C 92.714844 84.21875 93.203125 83.476562 93.796875 82.824219 C 94.390625 81.777344 95.273438 80.921875 96.335938 80.355469 C 97.523438 79.914062 99.375 80.355469 100.273438 80.136719 C 101.175781 79.921875 100.65625 79.230469 101.308594 78.839844 C 101.960938 78.449219 103.238281 78.621094 104.109375 78.203125 C 105.464844 77.414062 106.578125 76.265625 107.324219 74.886719 C 107.605469 77.460938 107.289062 80.066406 106.402344 82.5 C 105.519531 85.398438 103.492188 87.8125 100.785156 89.175781 C 99.761719 89.675781 98.691406 90.078125 97.589844 90.375 C 98.136719 89.625 98.917969 89.300781 99.234375 88.125 C 99.402344 86.632812 99.453125 85.125 99.382812 83.625 Z M 113.863281 94.851562 C 115.042969 94.746094 116.496094 95.0625 117.613281 95.003906 C 118.570312 94.894531 119.515625 94.71875 120.441406 94.476562 C 120.269531 92.820312 120.441406 89.773438 118.90625 88.671875 C 116.886719 88.21875 114.789062 88.238281 112.777344 88.734375 C 110.167969 89.511719 107.621094 90.476562 105.148438 91.621094 C 107.226562 89.957031 109.566406 88.652344 112.074219 87.765625 C 114.375 87.074219 116.792969 86.84375 119.183594 87.089844 C 119.933594 87.300781 120.105469 87.613281 120.570312 88.261719 C 121.820312 90.292969 122.515625 92.621094 122.578125 95.011719 C 123.003906 95.558594 123.398438 96.132812 123.757812 96.726562 C 124.09375 97.535156 124.296875 98.390625 124.363281 99.261719 C 123.945312 98.65625 124.199219 97.890625 123.039062 97.441406 C 121.542969 97.183594 120.011719 97.230469 118.539062 97.574219 C 119.914062 98.457031 120.574219 100.113281 120.179688 101.699219 C 119.789062 103.28125 118.433594 104.441406 116.804688 104.578125 C 114.800781 105.097656 112.726562 104.019531 111.996094 102.082031 C 111.742188 101.105469 111.6875 100.082031 111.839844 99.082031 C 109.90625 98.847656 107.980469 99.574219 106.679688 101.023438 C 107.597656 102.644531 108.957031 103.964844 110.601562 104.835938 C 111.769531 105.496094 113.035156 105.96875 114.351562 106.230469 C 116.023438 106.539062 117.730469 106.617188 119.421875 106.46875 C 120.6875 106.332031 121.863281 105.757812 122.753906 104.851562 C 123.570312 103.828125 124.117188 102.613281 124.34375 101.324219 C 124.308594 102.429688 124.101562 103.519531 123.71875 104.558594 C 122.589844 106.683594 120.277344 107.90625 117.886719 107.648438 C 115.265625 107.621094 112.675781 107.109375 110.242188 106.148438 C 107.964844 105.210938 106.046875 103.570312 104.765625 101.46875 C 104.5 100.089844 104.449219 98.683594 104.617188 97.289062 C 107.109375 95.640625 107.714844 96.046875 110.664062 95.558594 C 111.890625 95.355469 112.738281 94.898438 113.910156 94.808594 Z M 120.613281 78.449219 C 121.8125 79.226562 123.144531 79.765625 124.546875 80.039062 C 125.648438 80.039062 125.933594 79.289062 126.585938 78.886719 C 127.523438 82.351562 128.839844 85.703125 130.507812 88.882812 C 131.257812 90.148438 131.699219 89.558594 132.246094 90.832031 C 132.796875 92.109375 133.050781 94.6875 133.566406 96.308594 C 134.097656 97.746094 134.703125 99.160156 135.382812 100.539062 C 133.769531 98.390625 132.308594 96.136719 131.011719 93.789062 C 130.15625 91.980469 130.703125 91.824219 130.011719 90.097656 C 129.324219 88.371094 127.921875 85.6875 126.878906 83.484375 C 126.136719 83.640625 125.375 83.660156 124.628906 83.542969 C 124.058594 83.371094 124.171875 82.792969 123.660156 82.371094 C 123.148438 81.953125 122.28125 82.132812 121.558594 81.511719 C 120.878906 80.648438 120.539062 79.566406 120.609375 78.472656 Z M 105.886719 136.664062 C 106.921875 135.824219 109.71875 136.492188 111.800781 136.664062 L 107.300781 137.820312 C 107.160156 138.328125 107.226562 138.921875 106.882812 139.320312 C 106.539062 139.71875 105.890625 139.914062 105.382812 140.210938 C 105.433594 138.871094 104.84375 137.488281 105.878906 136.648438 Z M 125.191406 108.636719 C 125.882812 107.207031 126.398438 105.695312 126.726562 104.136719 C 126.523438 106.027344 126.90625 108.105469 125.976562 109.476562 C 125.046875 110.851562 123.433594 110.609375 122.09375 110.976562 C 123.136719 110.183594 124.34375 109.828125 125.175781 108.636719 Z M 123.300781 129.636719 C 123.207031 126.867188 124.648438 124.273438 127.050781 122.886719 C 128.691406 121.949219 130.480469 121.304688 132.34375 120.988281 C 135.359375 120.71875 138.394531 121.117188 141.238281 122.152344 C 143.054688 123.195312 144.808594 124.34375 146.488281 125.59375 C 148.28125 126.652344 149.558594 127.363281 151.265625 128.558594 C 153.890625 130.378906 155.421875 132.398438 157.265625 133.605469 C 158.3125 134.027344 159.410156 134.308594 160.53125 134.453125 C 159.558594 134.824219 158.496094 134.910156 157.476562 134.699219 C 156.078125 134.152344 154.777344 133.375 153.628906 132.40625 C 152.292969 131.210938 150.839844 130.15625 149.289062 129.253906 C 148.199219 128.625 146.414062 127.882812 145.222656 127.101562 C 144.03125 126.324219 141.960938 124.621094 140.820312 124.050781 C 139.019531 123.296875 137.082031 122.925781 135.128906 122.953125 C 132.578125 122.84375 130.058594 123.546875 127.933594 124.957031 C 126.34375 126.0625 125.5625 128.011719 125.953125 129.90625 C 126.480469 129.121094 127.058594 128.371094 127.679688 127.65625 C 128.972656 126.660156 130.644531 126.296875 132.234375 126.675781 C 133.929688 126.867188 135.3125 128.121094 135.675781 129.789062 C 135.132812 129.3125 134.535156 128.914062 133.890625 128.59375 C 132.628906 128.109375 131.210938 128.25 130.066406 128.96875 C 128.488281 129.808594 128.917969 131.054688 128.691406 132.441406 C 128.558594 133.03125 128.386719 133.609375 128.175781 134.175781 C 127.582031 134.039062 127.035156 133.746094 126.59375 133.328125 C 126.554688 133.976562 126.578125 134.625 126.652344 135.269531 C 126.859375 136.078125 127.109375 136.878906 127.402344 137.664062 C 126.242188 136.65625 125.253906 135.464844 124.476562 134.136719 C 123.734375 132.753906 123.351562 131.207031 123.367188 129.636719 Z M 137.46875 132.023438 C 138.617188 132.046875 139.746094 132.339844 140.761719 132.878906 C 141.605469 133.34375 142.394531 133.90625 143.113281 134.550781 C 144.949219 136.355469 146.246094 138.632812 146.863281 141.128906 C 147.191406 142.972656 147.382812 144.839844 147.441406 146.714844 C 147.011719 144.957031 146.445312 143.234375 145.753906 141.5625 C 144.539062 138.949219 142.46875 136.832031 139.882812 135.5625 C 139.292969 135.289062 138.632812 135.207031 137.992188 135.324219 C 138.203125 135.675781 138.554688 135.96875 138.570312 136.484375 C 138.648438 137.265625 138.269531 138.023438 137.59375 138.425781 C 136.214844 139.027344 134.613281 138.730469 133.539062 137.675781 C 132.429688 136.660156 132.070312 135.058594 132.636719 133.664062 C 133.320312 131.984375 135.929688 131.984375 137.46875 132.046875 Z M 59.421875 136.851562 C 57.496094 136.984375 55.785156 138.125 54.921875 139.851562 C 53.957031 141.347656 52.144531 142.050781 50.421875 141.601562 C 48.289062 140.6875 45.835938 140.914062 43.90625 142.199219 C 41.609375 143.835938 39.128906 142.597656 39.5625 139.621094 C 39.746094 136.625 41.375 133.90625 43.933594 132.335938 C 50.175781 128.746094 45.839844 126.246094 49.261719 122.640625 C 52.679688 119.03125 51.929688 117.921875 51.824219 113.015625 C 41.648438 112.226562 32.332031 107.019531 26.324219 98.765625 C 19.484375 90.90625 15.578125 80.917969 15.269531 70.5 C 13.90625 60.726562 15.605469 50.769531 20.136719 42 C 24.164062 33.644531 30.976562 26.957031 39.40625 23.085938 C 47.484375 18.941406 56.5 16.953125 65.574219 17.316406 C 71.867188 16.875 78.175781 18.039062 83.894531 20.707031 C 87.390625 23.351562 91.308594 25.378906 95.484375 26.707031 C 97.574219 26.832031 99.644531 26.234375 101.347656 25.011719 C 101.699219 33.929688 93.675781 34.703125 86.488281 34.890625 C 79.304688 35.078125 74.894531 32.109375 68.289062 33.21875 C 59.144531 34.113281 50.847656 38.96875 45.585938 46.5 C 41.429688 52.332031 39.636719 59.523438 40.566406 66.621094 C 40.839844 72.996094 45.210938 78.457031 51.367188 80.121094 C 55.117188 80.183594 55.941406 79.101562 59.21875 76.964844 C 62.496094 74.828125 79.207031 54.15625 84.914062 49.5 C 89.785156 45.417969 95.96875 43.230469 102.324219 43.34375 C 106.617188 42.929688 110.941406 43.667969 114.855469 45.480469 C 119.019531 47.828125 123 50.496094 126.75 53.460938 C 128.535156 52.109375 130.246094 50.667969 131.878906 49.140625 C 136.722656 44.695312 143.335938 42.710938 149.828125 43.753906 C 154.84375 44.453125 159.566406 46.53125 163.46875 49.753906 C 169.160156 55.242188 174.226562 61.339844 178.574219 67.941406 C 181.359375 72.84375 185.613281 76.75 190.734375 79.109375 C 196.515625 80.886719 200.863281 73.394531 201.511719 69.238281 C 201.980469 66.9375 202.261719 64.597656 202.351562 62.25 C 202.378906 59.40625 202.042969 56.570312 201.34375 53.8125 C 200.566406 51.125 199.417969 48.5625 197.933594 46.191406 C 195.53125 42.289062 192.175781 39.066406 188.183594 36.816406 C 184.921875 35.148438 181.386719 34.074219 177.75 33.636719 C 174.226562 33.957031 170.722656 34.457031 167.25 35.136719 C 162.871094 35.4375 155.046875 36.421875 151.613281 33.039062 C 149.828125 31.382812 148.800781 29.066406 148.777344 26.632812 C 149.789062 27.433594 151.011719 27.925781 152.296875 28.050781 C 155.039062 28.28125 157.605469 26.039062 159.796875 24.742188 C 161.964844 23.265625 164.238281 21.945312 166.597656 20.796875 C 173.117188 18.640625 180.054688 18.042969 186.847656 19.050781 C 192.636719 19.828125 198.230469 21.671875 203.347656 24.488281 C 208.082031 27.398438 212.238281 31.164062 215.601562 35.585938 C 219.460938 40.253906 222.128906 45.789062 223.378906 51.710938 C 225.503906 61.207031 225.546875 71.050781 223.507812 80.566406 C 220.828125 88.46875 216.441406 95.6875 210.660156 101.707031 C 205.828125 106.160156 199.777344 109.0625 193.28125 110.046875 C 193.539062 111.375 193.582031 112.613281 193.921875 113.699219 C 194.40625 115.246094 195.328125 116.96875 197.234375 116.429688 C 197.976562 116.058594 198.878906 116.25 199.402344 116.894531 C 200.398438 117.773438 199.875 121.148438 197.0625 122.664062 C 195.433594 123.417969 193.640625 123.753906 191.851562 123.644531 C 189.070312 123.753906 186.285156 123.625 183.523438 123.261719 C 181.050781 122.828125 179.566406 120.871094 176.820312 120.554688 C 172.796875 119.515625 169.066406 117.554688 165.929688 114.824219 C 165.058594 114.304688 164.148438 113.839844 163.214844 113.4375 C 163.65625 114.789062 164.242188 116.199219 164.542969 117.496094 C 164.84375 118.792969 164.707031 120 164.863281 121.042969 C 165.023438 122.085938 165.308594 122.886719 165.472656 123.734375 C 166.15625 124.34375 166.371094 125.234375 167.511719 125.558594 C 168.886719 125.671875 170.269531 125.566406 171.609375 125.234375 C 172.777344 125.078125 173.566406 124.449219 174.480469 124.613281 C 175.433594 124.890625 176.308594 125.386719 177.039062 126.058594 C 177.789062 126.675781 178.460938 126.765625 179.09375 128.308594 C 179.824219 130.492188 180.253906 132.761719 180.367188 135.058594 C 180.496094 136.980469 180.242188 138.902344 179.617188 140.722656 C 179.046875 142.304688 178.058594 143.707031 176.761719 144.78125 C 174.574219 146.945312 172.167969 148.878906 169.582031 150.546875 C 170 151.347656 170.503906 152.101562 171.082031 152.796875 C 171.832031 153.609375 173.511719 154.515625 174.238281 155.371094 C 174.910156 156.003906 175.308594 156.875 175.351562 157.800781 C 175.445312 158.945312 175.160156 160.089844 174.53125 161.054688 C 172.664062 163.148438 170.21875 164.644531 167.503906 165.351562 C 168.132812 167.960938 168.191406 170.671875 167.675781 173.300781 C 167.398438 174.496094 166.785156 177.195312 165.316406 177.890625 C 163.308594 178.328125 161.261719 178.542969 159.210938 178.539062 C 157.417969 178.824219 156.414062 179.09375 155.011719 179.371094 C 154.050781 180.519531 153.199219 181.75 152.460938 183.050781 C 152.074219 183.890625 152.097656 184.859375 152.519531 185.675781 C 152.886719 186.800781 154.132812 188.445312 154.476562 189.757812 C 154.847656 191.082031 154.878906 192.476562 154.566406 193.816406 C 154.238281 195.136719 153.539062 196.335938 152.550781 197.273438 C 151.425781 198.449219 149.203125 199.363281 148.101562 200.316406 C 147 201.269531 145.898438 201.382812 146.199219 202.957031 C 147.226562 205.804688 149.328125 208.140625 152.054688 209.460938 C 153.667969 209.933594 155.402344 209.808594 156.929688 209.109375 C 156.816406 210.953125 155.21875 212.199219 154.175781 213.421875 C 157.027344 212.648438 159.617188 211.128906 161.675781 209.015625 C 160.417969 211.832031 158.480469 214.289062 156.039062 216.171875 C 154.671875 217.359375 153.15625 218.367188 151.539062 219.171875 C 153.992188 219.644531 156.515625 219.644531 158.96875 219.171875 C 157.242188 220.148438 155.332031 220.765625 153.359375 220.988281 C 151.222656 221.25 149.058594 221.089844 146.984375 220.515625 C 144.484375 219.394531 142.09375 218.035156 139.851562 216.457031 C 140.023438 217.707031 140.589844 218.871094 141.472656 219.773438 C 142.957031 220.808594 144.566406 221.648438 146.265625 222.277344 C 143.84375 222.109375 141.433594 221.820312 139.042969 221.40625 C 137.601562 221.117188 136.199219 220.640625 134.878906 219.988281 C 133.703125 219.300781 132.578125 218.523438 131.511719 217.671875 C 131.859375 218.789062 132.40625 219.832031 133.125 220.753906 C 134.242188 221.5 135.457031 222.089844 136.734375 222.503906 C 135.484375 222.625 134.226562 222.597656 132.984375 222.421875 C 131.578125 222.078125 130.257812 221.453125 129.105469 220.582031 C 127.695312 219.546875 126.386719 218.382812 125.199219 217.101562 C 123.992188 215.921875 122.980469 214.5625 122.199219 213.066406 C 121.761719 211.914062 122.460938 211.101562 122.585938 210.121094 C 121.710938 210.511719 120.90625 211.042969 120.195312 211.6875 C 119.4375 212.398438 119.101562 213.453125 119.308594 214.46875 C 119.890625 216.042969 120.6875 217.53125 121.671875 218.886719 C 119.09375 216.78125 117.652344 215.960938 117.039062 213.421875 C 116.832031 211.117188 117.570312 208.828125 119.078125 207.074219 C 119.640625 206.183594 120.480469 205.351562 120.996094 204.488281 C 119.753906 203.429688 118.585938 202.289062 117.503906 201.066406 C 116.503906 199.761719 116.085938 198.007812 115.066406 196.761719 C 113.964844 195.640625 112.765625 194.621094 111.480469 193.71875 C 112.710938 195.878906 113.761719 198.136719 114.628906 200.46875 C 114.867188 201.8125 114.484375 203.191406 113.585938 204.21875 C 112.964844 205.164062 111.96875 205.371094 111.023438 205.949219 C 110.078125 206.527344 108.59375 206.070312 108.023438 206.933594 C 107.421875 207.824219 107.355469 208.976562 107.851562 209.933594 L 110.101562 213.425781 C 109.007812 212.785156 108.039062 211.949219 107.242188 210.96875 C 106.605469 210.121094 105.636719 209.332031 105.503906 208.183594 C 105.238281 207.097656 105.4375 205.949219 106.050781 205.011719 C 106.800781 203.992188 108.832031 203.648438 109.746094 202.859375 C 110.664062 202.074219 111.171875 201.5625 111.121094 200.542969 C 111.066406 199.523438 110.078125 198.796875 109.222656 198.15625 C 106.339844 196.347656 103.609375 194.300781 101.0625 192.046875 C 100.101562 191.125 99.382812 189.984375 98.960938 188.722656 C 98.769531 187.753906 99.003906 186.75 99.601562 185.960938 C 100.222656 184.828125 102.351562 183.324219 102.601562 182.101562 C 102.847656 180.878906 101.78125 180.601562 100.816406 180.171875 C 99.847656 179.746094 98.003906 180.390625 97.066406 179.640625 C 96.128906 178.890625 97.328125 177.308594 96.316406 176.4375 C 95.300781 175.566406 92.976562 176.054688 91.816406 175.117188 C 90.753906 174.230469 90.011719 173.019531 89.707031 171.667969 C 89.308594 170.433594 89.246094 169.117188 89.527344 167.851562 C 89.804688 166.867188 90.644531 166.703125 91.15625 166.191406 C 91.664062 165.683594 92.109375 165.261719 91.425781 164.496094 C 90.742188 163.734375 88.53125 164.542969 87.253906 163.566406 C 85.980469 162.59375 86.761719 160.265625 85.859375 159.285156 C 84.960938 158.300781 83.339844 158.683594 82.492188 158.371094 C 81.644531 158.054688 81.308594 159.164062 80.78125 157.417969 C 80.257812 155.671875 80.242188 150.449219 79.546875 148.5 C 78.847656 146.550781 77.460938 148.371094 76.816406 146.429688 C 76.511719 143.789062 76.402344 141.128906 76.492188 138.472656 L 75.179688 130.515625 C 71.472656 133.136719 67.183594 134.820312 62.683594 135.421875 C 61.339844 146.28125 62.199219 157.304688 65.21875 167.828125 C 69.292969 181.15625 77.542969 189.007812 88.679688 200.289062 C 76.988281 192.722656 67.886719 181.761719 62.59375 168.878906 C 59.199219 158.546875 58.136719 147.589844 59.488281 136.800781 "/>
</g>
</svg>
